<?xml version="1.0" encoding="utf-8"?>
<!-- Generator: Adobe Illustrator 22.1.0, SVG Export Plug-In . SVG Version: 6.00 Build 0)  -->
<svg version="1.1" id="Layer_1" xmlns="http://www.w3.org/2000/svg" xmlns:xlink="http://www.w3.org/1999/xlink" x="0px" y="0px"
	 viewBox="0 0 32 32" style="enable-background:new 0 0 32 32;" xml:space="preserve">
<style type="text/css">
	.st0{fill:none;stroke:#0AAD0A;stroke-width:1.2828;stroke-linecap:round;stroke-miterlimit:10;}
	.st1{fill:none;stroke:#0AAD0A;stroke-width:1.069;stroke-linecap:round;stroke-miterlimit:10;}
</style>
<path class="st0" d="M8.3,25.9c1.5,0,2.7-1.2,2.7-2.7c0-1.5-1.2-2.7-2.7-2.7s-2.7,1.2-2.7,2.7C5.6,24.7,6.8,25.9,8.3,25.9z"/>
<path class="st0" d="M7.2,10.2h16.1"/>
<path class="st0" d="M8.6,13.5h14"/>
<path class="st0" d="M7.8,20.6h10.5c1.1,0,2.2-0.7,2.5-1.8l4.3-12.5c0.4-1.1,1.4-1.8,2.5-1.8h3.1"/>
<path class="st1" d="M8.3,23.6c0.2,0,0.4-0.2,0.4-0.4c0-0.2-0.2-0.4-0.4-0.4c-0.2,0-0.4,0.2-0.4,0.4C7.9,23.5,8.1,23.6,8.3,23.6z"/>
<path class="st0" d="M18,25.9c1.5,0,2.7-1.2,2.7-2.7c0-1.5-1.2-2.7-2.7-2.7c-1.5,0-2.7,1.2-2.7,2.7C15.3,24.7,16.5,25.9,18,25.9z"/>
<path class="st1" d="M18,23.6c0.2,0,0.4-0.2,0.4-0.4c0-0.2-0.2-0.4-0.4-0.4c-0.2,0-0.4,0.2-0.4,0.4C17.6,23.5,17.8,23.6,18,23.6z"/>
<path class="st0" d="M21.4,17.2h-14c-0.5,0-0.9-0.3-1-0.8L3.9,7.7C3.8,7.2,4.1,6.8,4.6,6.8h18"/>
<path class="st0" d="M1.2,27.6c0,0,10.3-3.5,24.1,0"/>
</svg>
